<?xml version="1.0" encoding="utf-8"?>
<!-- Svg Vector Icons : http://www.onlinewebfonts.com/icon -->
<!DOCTYPE svg PUBLIC "-//W3C//DTD SVG 1.1//EN" "http://www.w3.org/Graphics/SVG/1.1/DTD/svg11.dtd">
<svg version="1.1" xmlns="http://www.w3.org/2000/svg" xmlns:xlink="http://www.w3.org/1999/xlink" x="0px" y="0px" viewBox="0 0 1000 1000" enable-background="new 0 0 1000 1000" xml:space="preserve">
<metadata> Svg Vector Icons : http://www.onlinewebfonts.com/icon </metadata>
<g><path d="M989.2,319.7c-0.7-1.7-1.6-3.4-2.5-5L850.9,86.8L744.6,319.7H989.2z M317.5,319.7h362.7L498.8,63L317.5,319.7z M461.5,51.6h-256c-10,0-20.8,3.6-29.9,9.5l109.6,240.1L461.5,51.6z M823.3,58.1c-7.9-4.1-16.6-6.5-24.8-6.5H536.1l176.3,249.6L823.3,58.1z M307.2,356.7l191.1,591.6c0.4,0.1,0.9,0.1,1.3,0.1l190.8-591.7H307.2z M149.5,93L17.4,314.7c-1,1.7-2,3.4-3,5h238.5L149.5,93z M10,356.7l1.1,1.9h2c2.2,2.7,5.2,6.4,8.9,11l419.4,522.9L268.3,356.7H10z M990,356.7H729.3L552,906.7l430.9-537.2C985.9,365.7,988.3,361.4,990,356.7z"/></g>
</svg>